<?xml version="1.0" encoding="UTF-8" standalone="no"?>
<svg
   xmlns:dc="http://purl.org/dc/elements/1.1/"
   xmlns:cc="http://creativecommons.org/ns#"
   xmlns:rdf="http://www.w3.org/1999/02/22-rdf-syntax-ns#"
   xmlns:svg="http://www.w3.org/2000/svg"
   xmlns="http://www.w3.org/2000/svg"
   viewBox="0 0 1122.52 793.70667"
   height="793.70667"
   width="1122.52"
   xml:space="preserve"
   id="svg2"
   version="1.1"><metadata
     id="metadata8"><rdf:RDF><cc:Work
         rdf:about=""><dc:format>image/svg+xml</dc:format><dc:type
           rdf:resource="http://purl.org/dc/dcmitype/StillImage" /></cc:Work></rdf:RDF></metadata><defs
     id="defs6"><clipPath
       id="clipPath18"
       clipPathUnits="userSpaceOnUse"><path
         id="path16"
         d="M 0,595.28 H 841.89 V 0 H 0 Z" /></clipPath><clipPath
       id="clipPath30"
       clipPathUnits="userSpaceOnUse"><path
         id="path28"
         d="m 639.756,361.184 c -1.692,-0.069 -2.79,-0.85 -2.79,-2.52 v 0 -74.476 c 0,-1.302 0.932,-2.476 2.364,-2.476 v 0 h 132.951 c 1.198,0 2.148,0.109 2.707,1.689 v 0 c 0,0 13.477,42.166 13.717,42.929 v 0 c 0.497,1.598 0.174,2.401 -1.189,3.271 v 0 c -43.303,27.741 -108.05,31.773 -137.459,31.773 v 0 c -4.219,0 -7.704,-0.083 -10.301,-0.19" /></clipPath><linearGradient
       id="linearGradient44"
       spreadMethod="pad"
       gradientTransform="matrix(151.76549,0,0,-151.76549,636.96619,321.5433)"
       gradientUnits="userSpaceOnUse"
       y2="0"
       x2="1"
       y1="0"
       x1="0"><stop
         id="stop36"
         offset="0"
         style="stop-opacity:1;stop-color:#973b7b" /><stop
         id="stop38"
         offset="0.247191"
         style="stop-opacity:1;stop-color:#c03287" /><stop
         id="stop40"
         offset="0.814607"
         style="stop-opacity:1;stop-color:#d24035" /><stop
         id="stop42"
         offset="1"
         style="stop-opacity:1;stop-color:#d24035" /></linearGradient><clipPath
       id="clipPath54"
       clipPathUnits="userSpaceOnUse"><path
         id="path52"
         d="M 0,595.28 H 841.89 V 0 H 0 Z" /></clipPath></defs><g
     transform="matrix(1.3333333,0,0,-1.3333333,0,793.70667)"
     id="g10"><g
       id="g12"><g
         clip-path="url(#clipPath18)"
         id="g14"><g
           transform="translate(70.4253,427.237)"
           id="g20"><path
             id="path22"
             style="fill:#82be00;fill-opacity:1;fill-rule:nonzero;stroke:none"
             d="m 0,0 c 0,0 -52.012,-78.957 14.027,-145.608 v 66.502 H 14.013 -6.07 v 13.464 H 48.764 V -79.106 H 28.681 v -93.978 h 9.1 v 14.187 c 0,3.379 1.069,6.633 2.882,9.486 C 107.953,-43.535 0,0 0,0" /></g></g></g><g
       id="g24"><g
         clip-path="url(#clipPath30)"
         id="g26"><g
           id="g32"><g
             id="g34"><path
               id="path46"
               style="fill:url(#linearGradient44);stroke:none"
               d="m 639.756,361.184 c -1.692,-0.069 -2.79,-0.85 -2.79,-2.52 v 0 -74.476 c 0,-1.302 0.932,-2.476 2.364,-2.476 v 0 h 132.951 c 1.198,0 2.148,0.109 2.707,1.689 v 0 c 0,0 13.477,42.166 13.717,42.929 v 0 c 0.497,1.598 0.174,2.401 -1.189,3.271 v 0 c -43.303,27.741 -108.05,31.773 -137.459,31.773 v 0 c -4.219,0 -7.704,-0.083 -10.301,-0.19" /></g></g></g></g><g
       id="g48"><g
         clip-path="url(#clipPath54)"
         id="g50"><g
           transform="translate(667.2568,313.5847)"
           id="g56"><path
             id="path58"
             style="fill:#ffffff;fill-opacity:1;fill-rule:nonzero;stroke:none"
             d="M 0,0 C -4.881,2.356 -8.209,3.586 -7.407,5.957 -6.458,8.765 -1.551,9.831 2.895,9.726 5.143,9.674 6.742,9.386 8.572,8.965 l 1.618,5.082 C 7.864,14.475 6.206,14.69 3.435,14.755 -5.48,14.962 -13.539,12.504 -15.61,7.298 c -2.455,-6.176 4.508,-9.652 10.548,-12.512 4.789,-2.269 8.575,-4.431 7.243,-7.264 -1.033,-2.193 -4.425,-3.23 -9.356,-3.118 -4.269,0.097 -9.597,1.321 -13.792,3.437 l -2.498,-5.398 c 3.085,-1.433 9.45,-3.38 14.884,-3.505 10.198,-0.236 16.803,2.329 19.446,7.887 C 13.992,-6.607 6.234,-3.009 0,0" /></g><g
           transform="translate(681.0889,304.3112)"
           id="g60"><path
             id="path62"
             style="fill:#ffffff;fill-opacity:1;fill-rule:nonzero;stroke:none"
             d="m 0,0 c 0.043,-0.127 0.136,-0.157 0.273,-0.157 0.137,0 0.205,0.039 0.242,0.157 0.055,0.169 4.967,15.399 4.967,15.399 5.007,-7.167 9.98,-16.594 12.643,-26.552 h 8.163 L 30.327,1.46 c 0.042,0.128 0.132,0.156 0.267,0.156 0.141,0 0.231,-0.039 0.248,-0.154 1.23,-7.921 9.106,-13.241 20.267,-13.241 7.218,0 13.743,1.89 15.366,2.758 l 4.227,13.327 h 16.247 l 1.655,5.158 h -16.25 l 2.798,8.751 h 19.366 l 1.683,5.348 H 69.007 L 59.778,-5.291 c -1.962,-0.495 -4.382,-0.739 -6.912,-0.739 -5.447,0 -9.808,1.296 -12.278,4.184 -1.858,2.169 -2.597,4.966 -2.137,8.083 1.095,7.436 8.335,12.135 18.015,12.135 2.039,0 4.135,-0.128 6.027,-0.369 l 1.911,5.61 c -2.332,0.358 -5.157,0.511 -7.93,0.511 -8.589,0 -16.057,-2.955 -20.895,-8.168 -0.148,-0.161 -0.308,-0.155 -0.399,-0.155 -0.15,0 -0.251,0.027 -0.211,0.155 l 2.427,7.607 h -7.09 L 22.545,-0.774 C 20.079,6.407 14.999,15.854 8.789,23.563 H 1.175 L -4.513,5.847 C -1.652,3.722 -0.748,2.185 0,0" /></g><g
           transform="translate(352.4287,321.6394)"
           id="g64"><path
             id="path66"
             style="fill:#82be00;fill-opacity:1;fill-rule:nonzero;stroke:none"
             d="m 0,0 c -8.432,2.311 -12.405,3.804 -12.405,7.496 0,4.105 3.426,6.556 9.166,6.556 9.147,0 22.247,-2.119 22.247,-2.119 l 0.102,13.674 c 0,0 -10.598,2.418 -20.655,2.418 -15.537,0 -25.577,-8.058 -25.577,-20.529 0,-14.698 13.039,-18.273 22.559,-20.884 8.433,-2.311 12.405,-3.804 12.405,-7.495 0,-2.588 -1.346,-6.929 -10.363,-6.929 -9.941,0 -24.673,2.061 -24.673,2.061 V -39.25 c 0,0 11.95,-2.282 23.952,-2.282 15.674,0 25.801,8.105 25.801,20.649 C 22.559,-6.184 9.521,-2.61 0,0" /></g><g
           transform="translate(176.4927,349.6755)"
           id="g68"><path
             id="path70"
             style="fill:#82be00;fill-opacity:1;fill-rule:nonzero;stroke:none"
             d="m 0,0 c -6.889,0 -14.424,-2.639 -19.937,-6.868 v 5.335 h -14.526 v -66.514 h 14.526 v 43.858 c 3.202,6.278 12.605,9.663 19.937,9.663 H 2.606 V 0 Z" /></g><g
           transform="translate(213.083,293.7966)"
           id="g72"><path
             id="path74"
             style="fill:#82be00;fill-opacity:1;fill-rule:nonzero;stroke:none"
             d="m 0,0 c -10.512,0 -18.142,8.919 -18.142,21.207 0,12.348 7.558,20.971 18.378,20.971 10.681,0 18.141,-8.623 18.141,-20.971 C 18.377,8.523 10.992,0 0,0 m 18.377,54.346 v -5.371 c -5.083,4.528 -11.457,6.904 -18.613,6.904 -19.165,0 -32.55,-14.258 -32.55,-34.672 0,-20.553 13.095,-34.907 31.843,-34.907 9.135,0 15.466,3.971 18.967,7.001 v -5.469 h 14.525 v 66.514 z" /></g><path
           id="path76"
           style="fill:#82be00;fill-opacity:1;fill-rule:nonzero;stroke:none"
           d="m 419.657,281.629 h 14.526 v 90.445 h -14.526 z" /><path
           id="path78"
           style="fill:#82be00;fill-opacity:1;fill-rule:nonzero;stroke:none"
           d="m 387.059,281.629 h 14.525 v 66.514 h -14.525 z" /><g
           transform="translate(394.2632,354.071)"
           id="g80"><path
             id="path82"
             style="fill:#82be00;fill-opacity:1;fill-rule:nonzero;stroke:none"
             d="m 0,0 c 5.08,0 9.059,3.979 9.059,9.059 0,5.015 -3.979,8.944 -9.059,8.944 -4.931,0 -8.943,-4.012 -8.943,-8.944 C -8.943,3.979 -5.015,0 0,0" /></g><path
           id="path84"
           style="fill:#82be00;fill-opacity:1;fill-rule:nonzero;stroke:none"
           d="m 451.942,281.629 h 14.525 v 66.514 h -14.525 z" /><g
           transform="translate(459.1465,354.071)"
           id="g86"><path
             id="path88"
             style="fill:#82be00;fill-opacity:1;fill-rule:nonzero;stroke:none"
             d="m 0,0 c 5.08,0 9.06,3.979 9.06,9.059 0,5.015 -3.98,8.944 -9.06,8.944 -4.931,0 -8.942,-4.012 -8.942,-8.944 C -8.942,3.979 -5.015,0 0,0" /></g><g
           transform="translate(286.647,349.6755)"
           id="g90"><path
             id="path92"
             style="fill:#82be00;fill-opacity:1;fill-rule:nonzero;stroke:none"
             d="m 0,0 c -16.222,0 -27.12,-10.433 -27.12,-25.96 v -42.087 h 14.532 v 39.982 c 0,9.44 4.235,14.226 12.588,14.226 8.295,0 12.5,-4.757 12.5,-14.138 v -40.07 h 14.621 v 42.175 C 27.121,-10.397 16.222,0 0,0" /></g><g
           transform="translate(579.9219,349.6755)"
           id="g94"><path
             id="path96"
             style="fill:#82be00;fill-opacity:1;fill-rule:nonzero;stroke:none"
             d="m 0,0 c -16.222,0 -27.12,-10.433 -27.12,-25.96 v -42.087 h 14.532 v 39.982 c 0,9.44 4.235,14.226 12.588,14.226 8.295,0 12.5,-4.757 12.5,-14.138 v -40.07 h 14.621 v 42.175 C 27.121,-10.397 16.222,0 0,0" /></g><g
           transform="translate(493.3447,322.4436)"
           id="g98"><path
             id="path100"
             style="fill:#82be00;fill-opacity:1;fill-rule:nonzero;stroke:none"
             d="m 0,0 c 1.696,8.196 8.52,14.002 16.719,14.002 7.109,0 15.052,-3.71 16.691,-14.002 z m 16.719,27.231 c -18.724,0 -32.314,-14.73 -32.314,-35.024 0,-20.022 14.782,-34.554 35.147,-34.554 13.773,0 23.534,5.897 23.534,5.897 l -0.048,15.013 c 0,0 -8.398,-7.445 -21.913,-7.445 -11.587,0 -20.524,6.95 -21.792,16.714 h 48.745 c 0,0 0.365,2.838 0.365,5.435 0,20.315 -12.749,33.964 -31.724,33.964" /></g></g></g></g></svg>